<svg width="30" height="30" viewBox="0 0 30 30" fill="none" xmlns="http://www.w3.org/2000/svg">
<circle cx="15" cy="15" r="15" fill="#308D8A"/>
<path d="M13.8027 11.6083L10.8291 14.3292L7.79394 13.9546L5.39453 15.0193L4.47168 17.0501L4.7998 18.9232L6.52246 19.4556L8.57324 19.219L9.84472 22.0385L14.4385 20.54L18.5605 19.7908L23.0107 19.4556L22.416 16.8727L23.0107 16.1037L24.5693 13.5603V11.214L23.3799 9.47889L21.083 8.45361H19.3809L16.5918 9.47889L13.8027 11.6083Z" fill="white"/>
<path fill-rule="evenodd" clip-rule="evenodd" d="M22.7364 16.9153L22.7368 16.9133C23.0729 16.7359 23.4211 16.3284 23.6589 16.05L23.659 16.0499C23.7233 15.9747 23.7795 15.9088 23.8252 15.8596C24.2627 15.3158 24.5797 14.6916 24.7565 14.0255C25.8393 10.3392 23.1856 7.58085 19.3051 8.05261C16.4953 8.53025 14.5025 10.3493 12.5083 12.1696L12.5083 12.1696C11.8731 12.7494 11.2377 13.3294 10.5758 13.8661C10.3059 13.7478 9.93438 13.6982 9.6312 13.6576C9.49016 13.6388 9.36392 13.6219 9.26961 13.601C7.80004 13.4843 6.12768 13.8465 5.09497 14.9152C3.45266 16.6892 3.48901 19.4295 6.36807 19.8182C7.04354 19.9343 7.73569 19.9113 8.39917 19.7522C8.41809 19.8373 8.45438 19.9188 8.49062 20.0002L8.49063 20.0002C8.51326 20.051 8.53586 20.1018 8.55423 20.1534C8.6689 20.419 8.75494 20.6973 8.84098 20.9757C8.96626 21.381 9.09156 21.7863 9.30529 22.1524C9.37626 22.2415 9.47099 22.2836 9.56843 22.2899C9.62896 22.3542 9.71362 22.3976 9.8194 22.4017C11.9978 21.4875 14.2855 20.8359 16.6303 20.4617C17.9443 20.2224 19.2605 20.1048 20.5848 19.9865C21.3381 19.9191 22.0942 19.8516 22.854 19.7613C23.2407 19.7694 23.3842 19.4427 23.2906 19.2047C23.3291 19.1363 23.3453 19.0526 23.3273 18.9564C23.2608 18.6892 23.1786 18.4256 23.0965 18.1625L23.0556 18.0309C23.0346 17.9613 23.0133 17.8916 22.992 17.8219L22.992 17.8218L22.992 17.8218L22.992 17.8218L22.992 17.8217L22.992 17.8217L22.992 17.8217L22.992 17.8217C22.9004 17.5217 22.8085 17.2209 22.7364 16.9153ZM9.15538 19.5124C9.61852 19.3586 10.1568 19.1425 9.98436 18.7062C9.93771 18.6128 9.85484 18.5406 9.75351 18.5053C9.65217 18.47 9.54043 18.4743 9.44234 18.5172C8.15302 19.1779 6.33672 19.4307 5.15505 18.4474C4.36019 17.4919 5.05993 16.0453 5.85605 15.2895C6.92505 14.4127 8.42232 14.2314 9.78013 14.4773C9.56307 14.634 9.34232 14.7847 9.11705 14.9281C8.67142 15.2145 9.10828 15.8475 9.55516 15.5852C10.8035 14.8304 11.8641 13.8485 12.9255 12.866L12.9255 12.866L12.9255 12.8659L12.9255 12.8659C13.5937 12.2474 14.2621 11.6287 14.9778 11.0661C16.5976 9.74711 18.7017 8.52437 20.9036 8.83728C22.0014 9.0539 23.1818 9.53169 23.7013 10.5498C24.575 12.0915 24.2045 14.1446 23.1017 15.4949C22.8796 15.7717 22.6219 16.0203 22.3349 16.2349C22.2264 16.2038 22.1015 16.1932 21.9835 16.1832C21.9386 16.1794 21.8947 16.1757 21.8531 16.1709C22.2121 15.5928 22.397 14.6815 22.3775 14.294C22.42 13.7933 21.6389 13.7199 21.5838 14.2182C21.5706 14.5222 21.5257 14.8241 21.4499 15.1196C21.3622 15.4216 21.2114 15.7034 21.0068 15.9475C20.9383 15.9725 20.8781 16.0147 20.8326 16.0698C20.8184 16.087 20.8058 16.1051 20.7949 16.1241C20.4887 16.119 20.1825 16.1204 19.8765 16.1285C20.1103 15.6189 20.2395 15.0169 20.1818 14.7633C20.1486 14.4491 20.0819 14.139 19.9828 13.8378C19.8188 13.3589 19.0715 13.5887 19.2192 14.0701C19.4806 14.7598 19.4061 15.5962 18.9074 16.1761C18.3125 16.2189 17.7195 16.2868 17.1299 16.3796C16.3984 16.5248 15.6782 16.7182 14.9743 16.9584C14.8743 16.9905 14.7911 17.0585 14.7421 17.1483C14.6931 17.238 14.6821 17.3425 14.7114 17.4398C14.744 17.5366 14.8145 17.6174 14.908 17.665C15.0015 17.7126 15.1105 17.7234 15.2121 17.695C15.3671 17.6499 15.5214 17.6034 15.6756 17.5569L15.6757 17.5569L15.6757 17.5569L15.6757 17.5569L15.6757 17.5569C16.0572 17.4418 16.4383 17.3269 16.8269 17.2352C17.5601 17.0694 18.2714 16.9973 19.014 16.9543C19.0648 16.9614 19.1151 16.9582 19.1646 16.946C19.3428 16.9366 19.523 16.9286 19.7059 16.9211C20.4475 16.8625 21.1881 16.9023 21.9255 16.949C21.9329 17.1314 22.0003 17.338 22.0615 17.5255C22.0974 17.6357 22.1312 17.7393 22.1494 17.8275C22.2127 18.0297 22.2703 18.2337 22.328 18.4376C22.3817 18.6278 22.4354 18.8178 22.4936 19.0061C21.8322 19.0804 21.1684 19.143 20.5044 19.2056C18.8179 19.3647 17.1296 19.524 15.4724 19.8744C14.255 20.1112 13.0543 20.4211 11.8773 20.8023L11.874 20.8033L11.874 20.8033C11.2032 21.0096 10.5255 21.2181 9.90955 21.5479C9.81485 21.3006 9.73095 21.0486 9.64706 20.7966C9.50187 20.3606 9.35667 19.9244 9.15538 19.5124ZM11.2094 19.233C10.8501 19.3675 10.3228 19.5649 10.5745 19.9973C10.8119 20.2951 11.1309 20.1336 11.441 19.9765C11.5871 19.9025 11.7312 19.8295 11.8638 19.806C12.2283 19.6668 12.6002 19.5462 12.9779 19.445C13.2185 19.3841 13.4605 19.327 13.7018 19.27C13.7944 19.2481 13.887 19.2263 13.9793 19.2043C14.4763 19.055 14.2409 18.3257 13.7402 18.4725C12.9102 18.6457 12.0974 18.8873 11.3106 19.1946C11.2792 19.2069 11.2452 19.2196 11.2095 19.233L11.2094 19.233L11.2094 19.233Z" fill="#171923"/>
</svg>
