<svg width="50" height="51" viewBox="0 0 50 51" fill="none" xmlns="http://www.w3.org/2000/svg">
<mask id="mask0_12293_46282" style="mask-type:alpha" maskUnits="userSpaceOnUse" x="0" y="0" width="24" height="50">
<rect width="23.7778" height="50" rx="0.888889" fill="#C4C4C4"/>
</mask>
<g mask="url(#mask0_12293_46282)">
<path d="M25 50C38.8071 50 50 38.8071 50 25C50 11.1929 38.8071 0 25 0C11.1929 0 0 11.1929 0 25C0 38.8071 11.1929 50 25 50Z" fill="#C8ECE1"/>
<path d="M9.48673 19.0449C9.17731 18.7568 9.46603 18.3968 9.71941 18.1988C10.0374 17.901 10.3523 17.5775 10.6507 17.2925C11.9792 15.9403 13.3083 14.627 14.8091 13.4789C15.0137 12.8027 15.9591 13.3613 15.5595 13.9052C13.6853 15.3969 11.9859 17.111 10.2914 18.8073L10.3139 18.7848C10.3194 18.7802 10.3245 18.7751 10.3291 18.7696C10.1159 19.0053 9.79494 19.3275 9.48673 19.0449Z" fill="#308D8A"/>
<path d="M15.3435 14.0183C15.2408 14.0135 15.1436 13.9705 15.071 13.8977C14.9984 13.8248 14.9557 13.7275 14.9512 13.6248C14.9502 13.5662 14.9614 13.5081 14.9842 13.4541C15.007 13.4001 15.0408 13.3514 15.0835 13.3113C15.1261 13.2712 15.1767 13.2404 15.232 13.2209C15.2873 13.2015 15.346 13.1938 15.4044 13.1984C15.9331 13.1272 16.4052 13.0827 16.9272 13.0541C24.6488 12.5217 32.4252 12.741 40.1377 13.1412C40.3643 13.1229 40.564 13.33 40.5677 13.5493C40.5543 14.1431 39.8447 13.9604 39.4549 13.9574C31.4409 13.5401 23.3514 13.3123 15.3435 14.0183Z" fill="#308D8A"/>
<path d="M34.5513 19.8917C34.4253 19.8868 34.3077 19.8819 34.209 19.8917C29.751 19.6414 25.2729 19.6724 20.7997 19.7029C17.6165 19.7254 14.4352 19.7461 11.2685 19.6682C11.1503 19.6034 11.0216 19.5599 10.8884 19.5396C10.6898 19.4723 10.4861 19.4209 10.2793 19.3861C10.1995 19.3691 10.1191 19.3539 10.0393 19.3386C10.007 19.3265 9.97839 19.3167 9.94549 19.3064C9.83565 19.2711 9.72097 19.2532 9.60561 19.2534C9.59891 19.2534 9.59161 19.2534 9.58491 19.2503C9.59113 19.2517 9.59744 19.2527 9.6038 19.2534H9.59709C9.50519 19.2375 9.41245 19.2269 9.31934 19.2217C9.32696 19.1642 9.34733 19.109 9.37894 19.0604C9.41055 19.0117 9.45261 18.9707 9.50207 18.9403C9.77251 18.7497 10.1112 18.7429 10.4261 18.7856C11.7411 18.9555 13.058 18.9184 14.3785 18.8824C15.1704 18.8623 15.9622 18.8404 16.754 18.8642C18.5929 18.8995 20.4342 18.8842 22.2755 18.869C24.5755 18.8501 26.8779 18.8319 29.1766 18.9147C30.2042 18.8964 31.2336 18.9354 32.2611 18.9756C33.1833 19.0128 34.1055 19.0487 35.0264 19.0438C35.0835 19.0287 35.143 19.0254 35.2014 19.0343C35.2598 19.0431 35.3156 19.0639 35.3656 19.0954C35.4156 19.1268 35.4585 19.1682 35.4917 19.217C35.525 19.2657 35.5478 19.3208 35.5588 19.3788C35.5856 19.8332 35.1994 19.9002 34.8005 19.9002C34.7189 19.8978 34.6336 19.8947 34.5513 19.8917Z" fill="#308D8A"/>
<path d="M10.7314 19.5156H10.7691C10.7582 19.5198 10.7442 19.5198 10.7314 19.5156Z" fill="#308D8A"/>
<path d="M9.94648 19.3037C9.83675 19.2681 9.72198 19.2504 9.60661 19.2513C9.59991 19.2513 9.59261 19.2514 9.58591 19.2477C9.59261 19.2477 9.59991 19.2477 9.60478 19.2513H9.59809C9.48653 19.2293 9.37314 19.2179 9.25944 19.2172H9.22471C9.18746 19.136 9.17343 19.0461 9.18418 18.9574C9.19493 18.8687 9.23004 18.7847 9.28562 18.7147C9.43363 18.5259 9.55119 18.2384 9.82833 18.2329C10.2876 18.2366 10.3643 18.7604 10.072 19.0363C10.0785 19.0861 10.0748 19.1367 10.0613 19.185C10.0478 19.2334 10.0247 19.2785 9.99338 19.3177L9.94648 19.3037Z" fill="#308D8A"/>
<path d="M11.6066 19.745C11.2192 19.7341 10.8105 19.6993 10.4329 19.6939C10.0303 19.6549 9.57345 19.7682 9.20555 19.572C8.63727 19.1743 9.5576 18.0261 10.065 18.1358C10.3866 18.207 10.5242 18.6517 10.2447 18.8624C10.7319 18.8746 11.2015 18.8965 11.6882 18.9233C12.2199 18.9843 12.1402 19.7858 11.6066 19.745Z" fill="#308D8A"/>
<path d="M34.4635 22.6222C26.4538 22.3146 18.4386 22.6136 10.4258 22.5192C9.91963 22.4991 9.90075 21.7195 10.4258 21.7012C18.6408 21.7664 26.857 21.5185 35.0683 21.8017C35.5958 21.7895 35.6384 22.6008 35.0957 22.624C34.8831 22.6301 34.6718 22.6282 34.4635 22.6222Z" fill="#308D8A"/>
<path d="M39.55 28.5804C34.7557 28.3453 29.9396 28.4726 25.1344 28.4105C23.2986 28.3837 21.4743 28.274 19.6403 28.3252C18.3338 28.3045 17.0169 28.5774 15.7183 28.4854C15.2402 28.3575 15.3413 27.6424 15.8523 27.6771C18.4934 27.5906 21.1454 27.3628 23.7932 27.5657C27.2998 27.6186 30.8082 27.5657 34.3154 27.6515C36.0818 27.6662 37.8548 27.587 39.6145 27.7594C39.98 27.7709 40.5678 27.6485 40.6043 28.1601C40.5897 28.7223 39.9203 28.5792 39.5378 28.5804H39.55Z" fill="#308D8A"/>
<path d="M15.4152 28.3714L15.3799 28.3409L15.3628 28.3275C15.3817 28.3422 15.4012 28.3586 15.4237 28.3732C13.3095 26.689 11.6473 24.5505 9.83282 22.5715C9.39914 22.2298 9.90713 21.5969 10.3158 21.9058C11.9031 23.4973 13.2024 25.349 14.9164 26.8145C15.2696 27.1678 15.654 27.4711 16.017 27.7994C16.3422 28.1801 15.7849 28.7174 15.4152 28.3714Z" fill="#308D8A"/>
<path d="M15.5267 31.5328C15.4213 31.5064 15.3305 31.4398 15.2736 31.3472C15.2167 31.2547 15.1982 31.1435 15.2221 31.0375C15.2831 30.7652 15.5492 30.6982 15.7959 30.733C16.1223 30.6731 16.4517 30.6306 16.7827 30.6056C24.5122 30.1609 32.2929 30.5204 40.0444 30.4802C40.5505 30.4954 40.5749 31.28 40.0474 31.2983C31.8793 31.3665 23.6455 30.906 15.5267 31.5328Z" fill="#308D8A"/>
<path d="M10.4827 37.2557C9.90525 37.3385 9.75602 36.4913 10.3609 36.4358C11.2648 36.4913 12.1547 36.4054 13.0555 36.3676C20.461 36.2543 27.8689 36.3883 35.2755 36.434C35.7384 36.5351 35.6568 37.2563 35.1836 37.246C26.9241 37.224 18.6769 37.0407 10.4254 37.2526L10.4827 37.2557Z" fill="#308D8A"/>
<path d="M10.0248 36.9793C9.32796 36.6577 10.0022 36.0267 10.3293 35.7191C11.2381 34.7031 12.1871 33.653 13.186 32.7394C13.8097 32.1047 14.4651 31.5072 15.1291 30.9176C15.2509 30.8025 15.4068 30.68 15.5786 30.6825C16.0312 30.6648 16.1609 31.3281 15.7321 31.4798C13.9048 33.0738 12.2285 34.8408 10.6101 36.6242C10.4676 36.8337 10.3366 37.0786 10.0248 36.9793Z" fill="#308D8A"/>
<path d="M15.6879 31.5202C23.5624 30.9276 31.5441 31.3448 39.4661 31.2985C38.0438 32.7908 36.7897 34.4415 35.3851 35.9539L35.3796 35.9594C35.2419 36.0867 35.0616 36.2554 34.963 36.4321C27.6617 36.3846 20.3573 36.2554 13.0578 36.3675C12.2903 36.3998 11.535 36.4662 10.7676 36.4528C12.3238 34.743 13.9361 33.0515 15.6879 31.5202Z" fill="#308D8A"/>
<path d="M39.8508 27.7564C39.7674 27.7564 39.6876 27.7619 39.6157 27.76C37.8548 27.5864 36.0829 27.6662 34.3165 27.651C30.8099 27.5663 27.3009 27.6187 23.7943 27.5663C21.155 27.3635 18.5109 27.5883 15.8759 27.6747C15.5543 27.3927 15.223 27.1266 14.9129 26.8141C13.4176 25.535 12.2384 23.9623 10.9062 22.5229C18.7582 22.6027 26.6126 22.3238 34.4615 22.6234C34.5638 22.6265 34.6674 22.6283 34.7697 22.6283C34.8239 22.6678 34.8842 22.6983 34.9481 22.7185C36.6756 24.2924 38.3859 25.9242 39.8508 27.7564Z" fill="#308D8A"/>
<path d="M39.4576 13.9576C39.5271 13.9576 39.6075 13.9643 39.6903 13.971C38.1115 15.579 36.6344 17.2735 35.1153 18.9358C35.0747 18.9639 35.04 18.9997 35.013 19.0411C34.0993 19.0466 33.182 19.0107 32.2653 18.9735C31.2378 18.9327 30.2078 18.8931 29.1802 18.9126C26.8815 18.8292 24.5797 18.848 22.2791 18.8669C20.4378 18.8822 18.5971 18.8974 16.7576 18.8614C15.9657 18.8377 15.1739 18.8614 14.3821 18.8803C13.0615 18.9163 11.7447 18.9534 10.429 18.7835C10.3967 18.778 10.3681 18.775 10.334 18.7713C10.3376 18.7664 10.3407 18.7597 10.3443 18.7542C11.981 17.1158 13.6243 15.4651 15.4267 14.0124C23.4078 13.3143 31.4674 13.5421 39.4576 13.9576Z" fill="#308D8A"/>
</g>
<mask id="mask1_12293_46282" style="mask-type:alpha" maskUnits="userSpaceOnUse" x="26" y="0" width="24" height="50">
<rect x="26.2217" width="23.7778" height="50" rx="0.888889" fill="#C4C4C4"/>
</mask>
<g mask="url(#mask1_12293_46282)">
<path d="M25 50C38.8071 50 50 38.8071 50 25C50 11.1929 38.8071 0 25 0C11.1929 0 0 11.1929 0 25C0 38.8071 11.1929 50 25 50Z" fill="black"/>
<path fill-rule="evenodd" clip-rule="evenodd" d="M15.4282 31.8913C15.5223 31.7878 15.6369 31.7051 15.7648 31.6485C15.8925 31.5919 16.0309 31.5626 16.1707 31.5625L39.0807 31.5812C39.1783 31.5815 39.2737 31.61 39.3553 31.6634C39.4371 31.7168 39.5014 31.7927 39.5407 31.882C39.5801 31.9712 39.5926 32.0701 39.5768 32.1664C39.5611 32.2626 39.5177 32.3522 39.4519 32.4244L34.5732 37.7962C34.479 37.8997 34.3643 37.9825 34.2364 38.0391C34.1084 38.0957 33.9701 38.125 33.8301 38.125L10.9207 38.1063C10.8231 38.106 10.7277 38.0775 10.6461 38.0241C10.5644 37.9707 10.5 37.8948 10.4607 37.8055C10.4214 37.7163 10.4088 37.6174 10.4246 37.5211C10.4403 37.4249 10.4837 37.3353 10.5494 37.2631L15.4282 31.8913ZM39.4519 27.4194C39.5177 27.4915 39.5611 27.5811 39.5768 27.6774C39.5926 27.7736 39.5801 27.8725 39.5407 27.9618C39.5014 28.051 39.4371 28.127 39.3553 28.1804C39.2737 28.2337 39.1783 28.2623 39.0807 28.2625L16.1713 28.2812C16.0314 28.2812 15.893 28.252 15.765 28.1954C15.637 28.1388 15.5223 28.056 15.4282 27.9525L10.5494 22.5775C10.4837 22.5054 10.4403 22.4157 10.4246 22.3195C10.4088 22.2232 10.4214 22.1244 10.4607 22.0351C10.5 21.9459 10.5644 21.8699 10.6461 21.8165C10.7277 21.7631 10.8231 21.7346 10.9207 21.7344L33.8307 21.7156C33.9706 21.7158 34.1088 21.745 34.2367 21.8016C34.3645 21.8582 34.4792 21.9409 34.5732 22.0444L39.4519 27.4194ZM15.4282 12.2037C15.5223 12.1003 15.6369 12.0176 15.7648 11.961C15.8925 11.9044 16.0309 11.8751 16.1707 11.875L39.0807 11.8938C39.1783 11.894 39.2737 11.9225 39.3553 11.9759C39.4371 12.0293 39.5014 12.1052 39.5407 12.1945C39.5801 12.2838 39.5926 12.3826 39.5768 12.4789C39.5611 12.5751 39.5177 12.6647 39.4519 12.7369L34.5732 18.1087C34.479 18.2122 34.3643 18.295 34.2364 18.3516C34.1084 18.4083 33.9701 18.4375 33.8301 18.4375L10.9207 18.4188C10.8231 18.4185 10.7277 18.39 10.6461 18.3366C10.5644 18.2832 10.5 18.2073 10.4607 18.118C10.4214 18.0288 10.4088 17.9299 10.4246 17.8336C10.4403 17.7374 10.4837 17.6477 10.5494 17.5756L15.4282 12.2037Z" fill="url(#paint0_linear_12293_46282)"/>
</g>
<circle cx="24.6885" cy="38.1074" r="12" fill="#308D8A"/>
<path fill-rule="evenodd" clip-rule="evenodd" d="M30.8052 39.4788L30.8054 39.4775C31.064 39.3357 31.3319 39.0095 31.5148 38.7868L31.5148 38.7868L31.5148 38.7868C31.5643 38.7266 31.6076 38.6739 31.6428 38.6345C31.9792 38.1995 32.2229 37.7002 32.359 37.1674C33.1917 34.2188 31.1508 32.0124 28.1666 32.3897C26.0057 32.7718 24.4732 34.2268 22.9396 35.6829C22.4511 36.1466 21.9626 36.6105 21.4536 37.0398C21.2461 36.9451 20.9603 36.9054 20.7271 36.873C20.6186 36.8579 20.5215 36.8444 20.449 36.8277C19.3189 36.7343 18.0328 37.0241 17.2386 37.8789C15.9756 39.2979 16.0035 41.4898 18.2176 41.8008C18.7372 41.8937 19.2696 41.8753 19.7799 41.7479C19.7944 41.8161 19.8224 41.8814 19.8503 41.9467C19.8677 41.9873 19.8851 42.028 19.8992 42.0692C19.9874 42.2817 20.0536 42.5043 20.1197 42.727C20.2161 43.0512 20.3125 43.3754 20.4768 43.6682C20.5312 43.7393 20.6039 43.773 20.6786 43.7782C20.7251 43.8295 20.7902 43.8643 20.8715 43.8675C22.5468 43.1363 24.3061 42.6151 26.1093 42.3157C27.1199 42.1243 28.132 42.0302 29.1504 41.9356L29.1504 41.9356L29.1504 41.9356L29.1504 41.9356L29.1505 41.9356L29.1505 41.9356L29.1505 41.9356L29.1505 41.9356C29.7299 41.8818 30.3113 41.8277 30.8956 41.7555C31.1931 41.762 31.3034 41.5005 31.2314 41.3101C31.261 41.2554 31.2734 41.1884 31.2596 41.1114C31.2084 40.8978 31.1453 40.6869 31.0822 40.4765L31.0821 40.4764L31.0507 40.3712C31.0345 40.3155 31.0182 40.2598 31.0018 40.2041L31.0018 40.2041L31.0018 40.2041L31.0018 40.2041L31.0018 40.204L31.0018 40.204L31.0018 40.204C30.9313 39.964 30.8607 39.7233 30.8052 39.4788ZM20.3613 41.5561C20.7175 41.4331 21.1313 41.2602 20.9987 40.9113C20.9628 40.8365 20.8991 40.7789 20.8212 40.7506C20.7432 40.7223 20.6573 40.7258 20.5819 40.7601C19.5903 41.2886 18.1935 41.4908 17.2848 40.7043C16.6735 39.94 17.2116 38.7828 17.8239 38.1783C18.646 37.477 19.7975 37.3319 20.8417 37.5286C20.6747 37.6541 20.5049 37.7747 20.3316 37.8894C19.9889 38.1185 20.3248 38.6249 20.6685 38.415C21.6285 37.8112 22.4442 37.0258 23.2604 36.2399L23.2604 36.2399L23.2604 36.2399L23.2605 36.2399L23.2605 36.2399C23.7743 35.7451 24.2883 35.2502 24.8387 34.8002C26.0844 33.7452 27.7026 32.7671 29.3959 33.0174C30.2401 33.1907 31.1479 33.5728 31.5474 34.3872C32.2194 35.6204 31.9344 37.2627 31.0863 38.3428C30.9156 38.5641 30.7175 38.7629 30.4968 38.9345C30.4136 38.9098 30.3177 38.9013 30.2272 38.8934C30.1926 38.8903 30.1588 38.8873 30.1267 38.8835C30.4028 38.4211 30.545 37.6921 30.53 37.3821C30.5628 36.9816 29.962 36.9229 29.9197 37.3214C29.9095 37.5646 29.875 37.8061 29.8167 38.0424C29.7493 38.2841 29.6333 38.5094 29.4759 38.7047C29.4232 38.7247 29.377 38.7585 29.3419 38.8026C29.331 38.8163 29.3213 38.8309 29.3129 38.8461C29.0774 38.842 28.8419 38.8431 28.6066 38.8496C28.7864 38.442 28.8859 37.9603 28.8415 37.7575C28.8159 37.5061 28.7646 37.258 28.6884 37.0172C28.5623 36.634 27.9876 36.8179 28.1012 37.203C28.3023 37.7547 28.2449 38.4239 27.8612 38.8877C27.4039 38.922 26.9479 38.9762 26.4946 39.0504C25.9321 39.1666 25.3782 39.3213 24.8369 39.5135C24.76 39.5391 24.696 39.5935 24.6583 39.6653C24.6206 39.7371 24.6121 39.8207 24.6347 39.8985C24.6598 39.9759 24.714 40.0405 24.7859 40.0786C24.8578 40.1167 24.9416 40.1253 25.0198 40.1026C25.1389 40.0666 25.2576 40.0294 25.3762 39.9922L25.3762 39.9922C25.6697 39.9001 25.9627 39.8082 26.2616 39.7349C26.8257 39.6022 27.3729 39.5445 27.9442 39.5101C27.9827 39.5156 28.0208 39.5131 28.0583 39.5036C28.1957 39.496 28.3347 39.4896 28.4757 39.4836C29.0456 39.4368 29.6148 39.4686 30.1816 39.5058C30.1873 39.6517 30.2391 39.8169 30.2861 39.9669L30.2861 39.9669L30.2861 39.9669L30.2861 39.9669C30.3138 40.0551 30.3397 40.1379 30.3537 40.2085C30.4024 40.3702 30.4468 40.5334 30.4911 40.6965C30.5324 40.8486 30.5737 41.0007 30.6186 41.1514C30.1098 41.2108 29.5994 41.2609 29.0887 41.311C27.7917 41.4383 26.4934 41.5657 25.2189 41.846C24.2827 42.0354 23.3593 42.2833 22.4541 42.5882L22.4516 42.589L22.4516 42.589C21.9359 42.754 21.4149 42.9206 20.9414 43.1843C20.8686 42.9866 20.8041 42.7852 20.7397 42.5838C20.628 42.2348 20.5162 41.8858 20.3613 41.5561ZM21.9403 41.3327C21.664 41.4403 21.2585 41.5982 21.452 41.9441C21.6346 42.1823 21.8799 42.0531 22.1184 41.9274C22.2307 41.8682 22.3415 41.8098 22.4436 41.791C22.7238 41.6797 23.0098 41.5833 23.3003 41.5022C23.4853 41.4536 23.6714 41.4079 23.8569 41.3623L23.857 41.3623L23.857 41.3623L23.857 41.3623C23.9283 41.3448 23.9994 41.3273 24.0705 41.3097C24.4526 41.1903 24.2716 40.607 23.8866 40.7244C23.2483 40.8629 22.6232 41.0562 22.0181 41.302C21.9939 41.3118 21.9677 41.322 21.9403 41.3327Z" fill="white"/>
<defs>
<linearGradient id="paint0_linear_12293_46282" x1="11.3032" y1="38.6975" x2="38.6982" y2="11.3025" gradientUnits="userSpaceOnUse">
<stop stop-color="#9945FF"/>
<stop offset="0.2" stop-color="#7962E7"/>
<stop offset="1" stop-color="#00D18C"/>
</linearGradient>
</defs>
</svg>
