<svg width="50" height="51" viewBox="0 0 50 51" fill="none" xmlns="http://www.w3.org/2000/svg">
<circle cx="25.2793" cy="37.5762" r="8.5" fill="#308D8A"/>
<path fill-rule="evenodd" clip-rule="evenodd" d="M29.6114 38.5473L29.6116 38.5464C29.7948 38.4459 29.9845 38.2149 30.1141 38.0572C30.1491 38.0145 30.1798 37.9772 30.2047 37.9493C30.443 37.6411 30.6157 37.2875 30.712 36.9101C31.3019 34.8215 29.8563 33.2586 27.7424 33.5259C26.2118 33.7965 25.1263 34.8272 24.04 35.8585L24.0399 35.8585C23.694 36.187 23.3479 36.5156 22.9874 36.8197C22.8404 36.7526 22.638 36.7245 22.4728 36.7015L22.4728 36.7015C22.396 36.6908 22.3272 36.6813 22.2758 36.6695C21.4753 36.6033 20.5643 36.8086 20.0017 37.4141C19.1071 38.4192 19.1269 39.9718 20.6952 40.192C21.0633 40.2578 21.4404 40.2448 21.8019 40.1546C21.8121 40.2029 21.832 40.2492 21.8517 40.2954C21.8641 40.3242 21.8764 40.353 21.8864 40.3822C21.9488 40.5327 21.9957 40.6904 22.0426 40.8481C22.1108 41.0778 22.1791 41.3074 22.2955 41.5148C22.3341 41.5652 22.3855 41.589 22.4384 41.5927C22.4714 41.6291 22.5175 41.6537 22.5751 41.656C23.7617 41.138 25.0079 40.7688 26.2852 40.5568C27.001 40.4212 27.718 40.3546 28.4394 40.2875C28.8498 40.2494 29.2616 40.2111 29.6755 40.16C29.8862 40.1646 29.9644 39.9793 29.9133 39.8445C29.9343 39.8058 29.9431 39.7583 29.9333 39.7038C29.8971 39.5524 29.8523 39.403 29.8076 39.254L29.7853 39.1794L29.7507 39.061C29.7008 38.891 29.6507 38.7205 29.6114 38.5473ZM22.2137 40.0187C22.466 39.9316 22.7591 39.8092 22.6652 39.562C22.6398 39.5091 22.5946 39.4682 22.5394 39.4482C22.4842 39.4282 22.4233 39.4306 22.3699 39.4549C21.6676 39.8293 20.6782 39.9725 20.0345 39.4154C19.6015 38.874 19.9827 38.0544 20.4163 37.6261C20.9987 37.1293 21.8143 37.0266 22.554 37.1659C22.4357 37.2548 22.3154 37.3402 22.1926 37.4215C21.9499 37.5838 22.1879 37.9424 22.4313 37.7938C23.1113 37.3661 23.6891 36.8098 24.2672 36.2531C24.6312 35.9027 24.9953 35.5521 25.3852 35.2333C26.2675 34.486 27.4138 33.7932 28.6132 33.9705C29.2112 34.0932 29.8542 34.3639 30.1372 34.9408C30.6131 35.8143 30.4113 36.9776 29.8106 37.7426C29.6896 37.8994 29.5493 38.0403 29.393 38.1618C29.334 38.1443 29.2662 38.1383 29.2021 38.1326C29.1775 38.1305 29.1536 38.1284 29.1309 38.1257C29.3264 37.7981 29.4272 37.2817 29.4165 37.0621C29.4397 36.7785 29.0142 36.7369 28.9842 37.0192C28.977 37.1914 28.9525 37.3625 28.9112 37.5299C28.8635 37.7011 28.7814 37.8607 28.6699 37.999C28.6326 38.0132 28.5998 38.0371 28.575 38.0683C28.5672 38.078 28.5604 38.0884 28.5544 38.0992C28.3876 38.0962 28.2208 38.0971 28.0541 38.1016C28.1815 37.8129 28.2519 37.4717 28.2205 37.328C28.2024 37.15 28.166 36.9743 28.112 36.8037C28.0227 36.5323 27.6157 36.6625 27.6961 36.9353C27.8385 37.3261 27.7979 37.8001 27.5261 38.1286C27.2022 38.1529 26.8792 38.1913 26.5581 38.2439C26.1596 38.3262 25.7673 38.4358 25.3839 38.5719C25.3294 38.59 25.2841 38.6286 25.2574 38.6794C25.2307 38.7303 25.2247 38.7895 25.2407 38.8446C25.2584 38.8995 25.2968 38.9452 25.3478 38.9722C25.3987 38.9992 25.4581 39.0053 25.5134 38.9892C25.5978 38.9637 25.6819 38.9373 25.7659 38.911L25.766 38.9109C25.9738 38.8458 26.1813 38.7807 26.3931 38.7287C26.7926 38.6347 27.1802 38.5939 27.5849 38.5695C27.6122 38.5734 27.6392 38.5716 27.6658 38.5649C27.7631 38.5595 27.8615 38.555 27.9614 38.5507C28.3651 38.5175 28.7683 38.5401 29.1697 38.5665C29.1738 38.6698 29.2105 38.7868 29.2438 38.893L29.2438 38.8931L29.2438 38.8931C29.2633 38.9555 29.2817 39.0142 29.2917 39.0642C29.3261 39.1787 29.3575 39.2943 29.3889 39.4098L29.389 39.4099C29.4182 39.5176 29.4475 39.6253 29.4792 39.7321C29.1189 39.7742 28.7573 39.8096 28.3956 39.8451L28.3956 39.8451C27.4769 39.9353 26.5572 40.0255 25.6545 40.2241C24.9913 40.3582 24.3373 40.5338 23.6961 40.7498L23.6943 40.7504L23.6943 40.7504C23.329 40.8672 22.96 40.9853 22.6246 41.1721C22.573 41.032 22.5274 40.8894 22.4817 40.7467C22.4026 40.4995 22.3234 40.2523 22.2137 40.0187ZM23.3321 39.8605C23.1364 39.9367 22.8492 40.0486 22.9863 40.2936C23.1156 40.4623 23.2894 40.3708 23.4583 40.2818C23.5379 40.2398 23.6164 40.1985 23.6886 40.1852C23.8872 40.1063 24.0897 40.038 24.2955 39.9806C24.4266 39.9461 24.5583 39.9138 24.6898 39.8815L24.6898 39.8815L24.6898 39.8815L24.841 39.8442C25.1117 39.7597 24.9835 39.3464 24.7108 39.4296C24.2586 39.5277 23.8159 39.6646 23.3872 39.8388C23.3701 39.8457 23.3516 39.8529 23.3322 39.8605L23.3321 39.8605Z" fill="white"/>
<path d="M25 50C38.8071 50 50 38.8071 50 25C50 11.1929 38.8071 0 25 0C11.1929 0 0 11.1929 0 25C0 38.8071 11.1929 50 25 50Z" fill="#C8ECE1"/>
<path d="M9.48673 19.0449C9.17731 18.7568 9.46603 18.3968 9.71941 18.1988C10.0374 17.901 10.3523 17.5775 10.6507 17.2925C11.9792 15.9403 13.3083 14.627 14.8091 13.4789C15.0137 12.8027 15.9591 13.3613 15.5595 13.9052C13.6853 15.3969 11.9859 17.111 10.2914 18.8073L10.3139 18.7848C10.3194 18.7802 10.3245 18.7751 10.3291 18.7696C10.1159 19.0053 9.79494 19.3275 9.48673 19.0449Z" fill="#308D8A"/>
<path d="M35.0347 19.5502C34.998 19.5053 34.9709 19.4534 34.9549 19.3976C34.939 19.3419 34.9346 19.2834 34.942 19.2259C34.9494 19.1684 34.9685 19.113 34.998 19.0631C35.0276 19.0132 35.067 18.9698 35.1139 18.9357C36.7945 17.0962 38.4263 15.2201 40.1939 13.4605C40.351 13.2454 40.7323 13.2217 40.8743 13.4781C41.0156 13.7102 40.8925 13.952 40.7165 14.1225C40.3224 14.5647 39.8772 14.9564 39.4727 15.3889C38.4372 16.4578 37.4626 17.5762 36.4881 18.6981C36.0836 19.0191 35.6256 20.0637 35.0347 19.5502Z" fill="#308D8A"/>
<path d="M15.3435 14.0183C15.2408 14.0135 15.1436 13.9705 15.071 13.8977C14.9984 13.8248 14.9557 13.7275 14.9512 13.6248C14.9502 13.5662 14.9614 13.5081 14.9842 13.4541C15.007 13.4001 15.0408 13.3514 15.0835 13.3113C15.1261 13.2712 15.1767 13.2404 15.232 13.2209C15.2873 13.2015 15.346 13.1938 15.4044 13.1984C15.9331 13.1272 16.4052 13.0827 16.9272 13.0541C24.6488 12.5217 32.4252 12.741 40.1377 13.1412C40.3643 13.1229 40.564 13.33 40.5677 13.5493C40.5543 14.1431 39.8447 13.9604 39.4549 13.9574C31.4409 13.5401 23.3514 13.3123 15.3435 14.0183Z" fill="#308D8A"/>
<path d="M34.5513 19.8917C34.4253 19.8868 34.3077 19.8819 34.209 19.8917C29.751 19.6414 25.2729 19.6724 20.7997 19.7029C17.6165 19.7254 14.4352 19.7461 11.2685 19.6682C11.1503 19.6034 11.0216 19.5599 10.8884 19.5396C10.6898 19.4723 10.4861 19.4209 10.2793 19.3861C10.1995 19.3691 10.1191 19.3539 10.0393 19.3386C10.007 19.3265 9.97839 19.3167 9.94549 19.3064C9.83565 19.2711 9.72097 19.2532 9.60561 19.2534C9.59891 19.2534 9.59161 19.2534 9.58491 19.2503C9.59113 19.2517 9.59744 19.2527 9.6038 19.2534H9.59709C9.50519 19.2375 9.41245 19.2269 9.31934 19.2217C9.32696 19.1642 9.34733 19.109 9.37894 19.0604C9.41055 19.0117 9.45261 18.9707 9.50207 18.9403C9.77251 18.7497 10.1112 18.7429 10.4261 18.7856C11.7411 18.9555 13.058 18.9184 14.3785 18.8824C15.1704 18.8623 15.9622 18.8404 16.754 18.8642C18.5929 18.8995 20.4342 18.8842 22.2755 18.869C24.5755 18.8501 26.8779 18.8319 29.1766 18.9147C30.2042 18.8964 31.2336 18.9354 32.2611 18.9756C33.1833 19.0128 34.1055 19.0487 35.0264 19.0438C35.0835 19.0287 35.143 19.0254 35.2014 19.0343C35.2598 19.0431 35.3156 19.0639 35.3656 19.0954C35.4156 19.1268 35.4585 19.1682 35.4917 19.217C35.525 19.2657 35.5478 19.3208 35.5588 19.3788C35.5856 19.8332 35.1994 19.9002 34.8005 19.9002C34.7189 19.8978 34.6336 19.8947 34.5513 19.8917Z" fill="#308D8A"/>
<path d="M10.7314 19.5156H10.7691C10.7582 19.5198 10.7442 19.5198 10.7314 19.5156Z" fill="#308D8A"/>
<path d="M9.94648 19.3037C9.83675 19.2681 9.72198 19.2504 9.60661 19.2513C9.59991 19.2513 9.59261 19.2514 9.58591 19.2477C9.59261 19.2477 9.59991 19.2477 9.60478 19.2513H9.59809C9.48653 19.2293 9.37314 19.2179 9.25944 19.2172H9.22471C9.18746 19.136 9.17343 19.0461 9.18418 18.9574C9.19493 18.8687 9.23004 18.7847 9.28562 18.7147C9.43363 18.5259 9.55119 18.2384 9.82833 18.2329C10.2876 18.2366 10.3643 18.7604 10.072 19.0363C10.0785 19.0861 10.0748 19.1367 10.0613 19.185C10.0478 19.2334 10.0247 19.2785 9.99338 19.3177L9.94648 19.3037Z" fill="#308D8A"/>
<path d="M11.6066 19.745C11.2192 19.7341 10.8105 19.6993 10.4329 19.6939C10.0303 19.6549 9.57345 19.7682 9.20555 19.572C8.63727 19.1743 9.5576 18.0261 10.065 18.1358C10.3866 18.207 10.5242 18.6517 10.2447 18.8624C10.7319 18.8746 11.2015 18.8965 11.6882 18.9233C12.2199 18.9843 12.1402 19.7858 11.6066 19.745Z" fill="#308D8A"/>
<path d="M34.4635 22.6222C26.4538 22.3146 18.4386 22.6136 10.4258 22.5192C9.91963 22.4991 9.90075 21.7195 10.4258 21.7012C18.6408 21.7664 26.857 21.5185 35.0683 21.8017C35.5958 21.7895 35.6384 22.6008 35.0957 22.624C34.8831 22.6301 34.6718 22.6282 34.4635 22.6222Z" fill="#308D8A"/>
<path d="M39.55 28.5804C34.7557 28.3453 29.9396 28.4726 25.1344 28.4105C23.2986 28.3837 21.4743 28.274 19.6403 28.3252C18.3338 28.3045 17.0169 28.5774 15.7183 28.4854C15.2402 28.3575 15.3413 27.6424 15.8523 27.6771C18.4934 27.5906 21.1454 27.3628 23.7932 27.5657C27.2998 27.6186 30.8082 27.5657 34.3154 27.6515C36.0818 27.6662 37.8548 27.587 39.6145 27.7594C39.98 27.7709 40.5678 27.6485 40.6043 28.1601C40.5897 28.7223 39.9203 28.5792 39.5378 28.5804H39.55Z" fill="#308D8A"/>
<path d="M15.4152 28.3714L15.3799 28.3409L15.3628 28.3275C15.3817 28.3422 15.4012 28.3586 15.4237 28.3732C13.3095 26.689 11.6473 24.5505 9.83282 22.5715C9.39914 22.2298 9.90713 21.5969 10.3158 21.9058C11.9031 23.4973 13.2024 25.349 14.9164 26.8145C15.2696 27.1678 15.654 27.4711 16.017 27.7994C16.3422 28.1801 15.7849 28.7174 15.4152 28.3714Z" fill="#308D8A"/>
<path d="M40.1646 28.5534C40.0945 28.537 40.0298 28.5028 39.9769 28.4541C39.924 28.4053 39.8846 28.3437 39.8625 28.2751C39.8405 28.2066 39.8366 28.1336 39.8512 28.0631C39.8659 27.9926 39.8985 27.9271 39.9459 27.873C38.4603 25.9946 36.7146 24.3262 34.9477 22.7182C34.1412 22.4429 34.9477 21.4074 35.4837 22.0859C37.2335 23.6056 38.8643 25.257 40.3619 27.0258C40.5928 27.295 40.7274 27.521 40.9186 27.7981C41.1483 28.2763 40.6159 28.6795 40.1646 28.5534Z" fill="#308D8A"/>
<path d="M15.5267 31.5328C15.4213 31.5064 15.3305 31.4398 15.2736 31.3472C15.2167 31.2547 15.1982 31.1435 15.2221 31.0375C15.2831 30.7652 15.5492 30.6982 15.7959 30.733C16.1223 30.6731 16.4517 30.6306 16.7827 30.6056C24.5122 30.1609 32.2929 30.5204 40.0444 30.4802C40.5505 30.4954 40.5749 31.28 40.0474 31.2983C31.8793 31.3665 23.6455 30.906 15.5267 31.5328Z" fill="#308D8A"/>
<path d="M10.4827 37.2557C9.90525 37.3385 9.75602 36.4913 10.3609 36.4358C11.2648 36.4913 12.1547 36.4054 13.0555 36.3676C20.461 36.2543 27.8689 36.3883 35.2755 36.434C35.7384 36.5351 35.6568 37.2563 35.1836 37.246C26.9241 37.224 18.6769 37.0407 10.4254 37.2526L10.4827 37.2557Z" fill="#308D8A"/>
<path d="M35.0722 36.9908C34.619 36.6394 35.1331 36.1947 35.4121 35.9322C35.4029 35.942 35.3932 35.9505 35.3841 35.959C36.9166 34.3089 38.2695 32.4931 39.8599 30.8985C39.8989 30.4075 40.6706 30.4301 40.6749 30.9265C40.6802 31.0378 40.6593 31.1488 40.6138 31.2505C40.5683 31.3522 40.4995 31.4417 40.413 31.5119C39.1338 32.7746 38.0593 34.2243 36.8484 35.5515C36.461 36.0181 36.0395 36.4652 35.6362 36.9147C35.5681 36.9946 35.4729 37.0466 35.3688 37.0607C35.2647 37.0747 35.1591 37.0498 35.0722 36.9908V36.9908Z" fill="#308D8A"/>
<path d="M10.0248 36.9793C9.32796 36.6577 10.0022 36.0267 10.3293 35.7191C11.2381 34.7031 12.1871 33.653 13.186 32.7394C13.8097 32.1047 14.4651 31.5072 15.1291 30.9176C15.2509 30.8025 15.4068 30.68 15.5786 30.6825C16.0312 30.6648 16.1609 31.3281 15.7321 31.4798C13.9048 33.0738 12.2285 34.8408 10.6101 36.6242C10.4676 36.8337 10.3366 37.0786 10.0248 36.9793Z" fill="#308D8A"/>
<path d="M15.6879 31.5202C23.5624 30.9276 31.5441 31.3448 39.4661 31.2985C38.0438 32.7908 36.7897 34.4415 35.3851 35.9539L35.3796 35.9594C35.2419 36.0867 35.0616 36.2554 34.963 36.4321C27.6617 36.3846 20.3573 36.2554 13.0578 36.3675C12.2903 36.3998 11.535 36.4662 10.7676 36.4528C12.3238 34.743 13.9361 33.0515 15.6879 31.5202Z" fill="#308D8A"/>
<path d="M39.8508 27.7564C39.7674 27.7564 39.6876 27.7619 39.6157 27.76C37.8548 27.5864 36.0829 27.6662 34.3165 27.651C30.8099 27.5663 27.3009 27.6187 23.7943 27.5663C21.155 27.3635 18.5109 27.5883 15.8759 27.6747C15.5543 27.3927 15.223 27.1266 14.9129 26.8141C13.4176 25.535 12.2384 23.9623 10.9062 22.5229C18.7582 22.6027 26.6126 22.3238 34.4615 22.6234C34.5638 22.6265 34.6674 22.6283 34.7697 22.6283C34.8239 22.6678 34.8842 22.6983 34.9481 22.7185C36.6756 24.2924 38.3859 25.9242 39.8508 27.7564Z" fill="#308D8A"/>
<path d="M39.4576 13.9576C39.5271 13.9576 39.6075 13.9643 39.6903 13.971C38.1115 15.579 36.6344 17.2735 35.1153 18.9358C35.0747 18.9639 35.04 18.9997 35.013 19.0411C34.0993 19.0466 33.182 19.0107 32.2653 18.9735C31.2378 18.9327 30.2078 18.8931 29.1802 18.9126C26.8815 18.8292 24.5797 18.848 22.2791 18.8669C20.4378 18.8822 18.5971 18.8974 16.7576 18.8614C15.9657 18.8377 15.1739 18.8614 14.3821 18.8803C13.0615 18.9163 11.7447 18.9534 10.429 18.7835C10.3967 18.778 10.3681 18.775 10.334 18.7713C10.3376 18.7664 10.3407 18.7597 10.3443 18.7542C11.981 17.1158 13.6243 15.4651 15.4267 14.0124C23.4078 13.3143 31.4674 13.5421 39.4576 13.9576Z" fill="#308D8A"/>
<circle cx="24.6885" cy="38.1074" r="12" fill="#308D8A"/>
<path fill-rule="evenodd" clip-rule="evenodd" d="M30.8052 39.4788L30.8054 39.4775C31.064 39.3357 31.3319 39.0095 31.5148 38.7868L31.5148 38.7868L31.5148 38.7868C31.5643 38.7266 31.6076 38.6739 31.6428 38.6345C31.9792 38.1995 32.2229 37.7002 32.359 37.1674C33.1917 34.2188 31.1508 32.0124 28.1666 32.3897C26.0057 32.7718 24.4732 34.2268 22.9396 35.6829C22.4511 36.1466 21.9626 36.6105 21.4536 37.0398C21.2461 36.9451 20.9603 36.9054 20.7271 36.873C20.6186 36.8579 20.5215 36.8444 20.449 36.8277C19.3189 36.7343 18.0328 37.0241 17.2386 37.8789C15.9756 39.2979 16.0035 41.4898 18.2176 41.8008C18.7372 41.8937 19.2696 41.8753 19.7799 41.7479C19.7944 41.8161 19.8224 41.8814 19.8503 41.9467C19.8677 41.9873 19.8851 42.028 19.8992 42.0692C19.9874 42.2817 20.0536 42.5043 20.1197 42.727C20.2161 43.0512 20.3125 43.3754 20.4768 43.6682C20.5312 43.7393 20.6039 43.773 20.6786 43.7782C20.7251 43.8295 20.7902 43.8643 20.8715 43.8675C22.5468 43.1363 24.3061 42.6151 26.1093 42.3157C27.1199 42.1243 28.132 42.0302 29.1504 41.9356L29.1504 41.9356L29.1504 41.9356L29.1504 41.9356L29.1505 41.9356L29.1505 41.9356L29.1505 41.9356L29.1505 41.9356C29.7299 41.8818 30.3113 41.8277 30.8956 41.7555C31.1931 41.762 31.3034 41.5005 31.2314 41.3101C31.261 41.2554 31.2734 41.1884 31.2596 41.1114C31.2084 40.8978 31.1453 40.6869 31.0822 40.4765L31.0821 40.4764L31.0507 40.3712C31.0345 40.3155 31.0182 40.2598 31.0018 40.2041L31.0018 40.2041L31.0018 40.2041L31.0018 40.2041L31.0018 40.204L31.0018 40.204L31.0018 40.204C30.9313 39.964 30.8607 39.7233 30.8052 39.4788ZM20.3613 41.5561C20.7175 41.4331 21.1313 41.2602 20.9987 40.9113C20.9628 40.8365 20.8991 40.7789 20.8212 40.7506C20.7432 40.7223 20.6573 40.7258 20.5819 40.7601C19.5903 41.2886 18.1935 41.4908 17.2848 40.7043C16.6735 39.94 17.2116 38.7828 17.8239 38.1783C18.646 37.477 19.7975 37.3319 20.8417 37.5286C20.6747 37.6541 20.5049 37.7747 20.3316 37.8894C19.9889 38.1185 20.3248 38.6249 20.6685 38.415C21.6285 37.8112 22.4442 37.0258 23.2604 36.2399L23.2604 36.2399L23.2604 36.2399L23.2605 36.2399L23.2605 36.2399C23.7743 35.7451 24.2883 35.2502 24.8387 34.8002C26.0844 33.7452 27.7026 32.7671 29.3959 33.0174C30.2401 33.1907 31.1479 33.5728 31.5474 34.3872C32.2194 35.6204 31.9344 37.2627 31.0863 38.3428C30.9156 38.5641 30.7175 38.7629 30.4968 38.9345C30.4136 38.9098 30.3177 38.9013 30.2272 38.8934C30.1926 38.8903 30.1588 38.8873 30.1267 38.8835C30.4028 38.4211 30.545 37.6921 30.53 37.3821C30.5628 36.9816 29.962 36.9229 29.9197 37.3214C29.9095 37.5646 29.875 37.8061 29.8167 38.0424C29.7493 38.2841 29.6333 38.5094 29.4759 38.7047C29.4232 38.7247 29.377 38.7585 29.3419 38.8026C29.331 38.8163 29.3213 38.8309 29.3129 38.8461C29.0774 38.842 28.8419 38.8431 28.6066 38.8496C28.7864 38.442 28.8859 37.9603 28.8415 37.7575C28.8159 37.5061 28.7646 37.258 28.6884 37.0172C28.5623 36.634 27.9876 36.8179 28.1012 37.203C28.3023 37.7547 28.2449 38.4239 27.8612 38.8877C27.4039 38.922 26.9479 38.9762 26.4946 39.0504C25.9321 39.1666 25.3782 39.3213 24.8369 39.5135C24.76 39.5391 24.696 39.5935 24.6583 39.6653C24.6206 39.7371 24.6121 39.8207 24.6347 39.8985C24.6598 39.9759 24.714 40.0405 24.7859 40.0786C24.8578 40.1167 24.9416 40.1253 25.0198 40.1026C25.1389 40.0666 25.2576 40.0294 25.3762 39.9922L25.3762 39.9922C25.6697 39.9001 25.9627 39.8082 26.2616 39.7349C26.8257 39.6022 27.3729 39.5445 27.9442 39.5101C27.9827 39.5156 28.0208 39.5131 28.0583 39.5036C28.1957 39.496 28.3347 39.4896 28.4757 39.4836C29.0456 39.4368 29.6148 39.4686 30.1816 39.5058C30.1873 39.6517 30.2391 39.8169 30.2861 39.9669L30.2861 39.9669L30.2861 39.9669L30.2861 39.9669C30.3138 40.0551 30.3397 40.1379 30.3537 40.2085C30.4024 40.3702 30.4468 40.5334 30.4911 40.6965C30.5324 40.8486 30.5737 41.0007 30.6186 41.1514C30.1098 41.2108 29.5994 41.2609 29.0887 41.311C27.7917 41.4383 26.4934 41.5657 25.2189 41.846C24.2827 42.0354 23.3593 42.2833 22.4541 42.5882L22.4516 42.589L22.4516 42.589C21.9359 42.754 21.4149 42.9206 20.9414 43.1843C20.8686 42.9866 20.8041 42.7852 20.7397 42.5838C20.628 42.2348 20.5162 41.8858 20.3613 41.5561ZM21.9403 41.3327C21.664 41.4403 21.2585 41.5982 21.452 41.9441C21.6346 42.1823 21.8799 42.0531 22.1184 41.9274C22.2307 41.8682 22.3415 41.8098 22.4436 41.791C22.7238 41.6797 23.0098 41.5833 23.3003 41.5022C23.4853 41.4536 23.6714 41.4079 23.8569 41.3623L23.857 41.3623L23.857 41.3623L23.857 41.3623C23.9283 41.3448 23.9994 41.3273 24.0705 41.3097C24.4526 41.1903 24.2716 40.607 23.8866 40.7244C23.2483 40.8629 22.6232 41.0562 22.0181 41.302C21.9939 41.3118 21.9677 41.322 21.9403 41.3327Z" fill="white"/>
</svg>
