<svg width="50" height="50" viewBox="0 0 50 50" fill="none" xmlns="http://www.w3.org/2000/svg">
<mask id="mask0_19728_145081" style="mask-type:alpha" maskUnits="userSpaceOnUse" x="0" y="0" width="24" height="50">
<rect width="23.7778" height="50" rx="0.888889" fill="#C4C4C4"/>
</mask>
<g mask="url(#mask0_19728_145081)">
<path d="M25 50C38.8071 50 50 38.8071 50 25C50 11.1929 38.8071 0 25 0C11.1929 0 0 11.1929 0 25C0 38.8071 11.1929 50 25 50Z" fill="#C8ECE1"/>
<path d="M8.38492 18.6645C8.0513 18.3539 8.36259 17.9657 8.63579 17.7523C8.9786 17.4312 9.31813 17.0824 9.63993 16.7751C11.0722 15.3172 12.5052 13.9012 14.1234 12.6633C14.344 11.9343 15.3633 12.5366 14.9325 13.123C12.9117 14.7313 11.0795 16.5794 9.25245 18.4084L9.27676 18.3841C9.28272 18.3791 9.28822 18.3736 9.29317 18.3677C9.06332 18.6218 8.71722 18.9692 8.38492 18.6645Z" fill="#308D8A"/>
<path d="M14.7004 13.2452C14.5896 13.2401 14.4848 13.1937 14.4065 13.1152C14.3283 13.0367 14.2822 12.9318 14.2774 12.821C14.2763 12.7578 14.2884 12.6952 14.313 12.6369C14.3375 12.5787 14.374 12.5263 14.42 12.483C14.466 12.4397 14.5205 12.4065 14.5801 12.3856C14.6397 12.3646 14.7031 12.3564 14.766 12.3613C15.3361 12.2845 15.845 12.2365 16.4078 12.2057C24.7331 11.6317 33.1175 11.8681 41.433 12.2996C41.6773 12.2799 41.8927 12.5032 41.8966 12.7396C41.8822 13.3799 41.1171 13.1829 40.6968 13.1796C32.0563 12.7297 23.3343 12.4841 14.7004 13.2452Z" fill="#308D8A"/>
<path d="M35.4098 19.578C35.2738 19.5727 35.1471 19.5675 35.0407 19.578C30.2342 19.3081 25.4059 19.3416 20.583 19.3744C17.1509 19.3987 13.7209 19.421 10.3066 19.337C10.1792 19.2672 10.0405 19.2203 9.89679 19.1984C9.68266 19.1258 9.46305 19.0704 9.24007 19.0329C9.15404 19.0145 9.06736 18.9981 8.98133 18.9817C8.94652 18.9686 8.91565 18.9581 8.88019 18.9469C8.76176 18.9089 8.63811 18.8896 8.51373 18.8898C8.50651 18.8898 8.49864 18.8898 8.49142 18.8865C8.49813 18.888 8.50493 18.8891 8.51178 18.8898H8.50455C8.40546 18.8726 8.30547 18.8612 8.20508 18.8556C8.2133 18.7936 8.23526 18.7341 8.26934 18.6817C8.30342 18.6292 8.34877 18.585 8.40209 18.5522C8.69368 18.3467 9.05883 18.3394 9.39835 18.3854C10.8162 18.5686 12.236 18.5286 13.6598 18.4898C14.5136 18.4682 15.3673 18.4445 16.221 18.4701C18.2037 18.5082 20.1889 18.4918 22.1742 18.4754C24.654 18.455 27.1364 18.4353 29.6149 18.5246C30.7228 18.5049 31.8326 18.5469 32.9405 18.5903C33.9348 18.6303 34.9291 18.6691 35.922 18.6638C35.9835 18.6475 36.0477 18.644 36.1107 18.6535C36.1736 18.6631 36.2338 18.6855 36.2877 18.7194C36.3416 18.7533 36.3879 18.7979 36.4237 18.8505C36.4595 18.9031 36.4842 18.9625 36.496 19.025C36.5249 19.5149 36.1085 19.5872 35.6784 19.5872C35.5904 19.5846 35.4984 19.5813 35.4098 19.578Z" fill="#308D8A"/>
<path d="M9.72754 19.1719H9.76816C9.75637 19.1764 9.7413 19.1764 9.72754 19.1719Z" fill="#308D8A"/>
<path d="M8.88136 18.9436C8.76305 18.9052 8.6393 18.8861 8.51491 18.8871C8.50769 18.8871 8.49982 18.8871 8.49259 18.8832C8.49982 18.8832 8.50769 18.8832 8.51294 18.8871H8.50573C8.38544 18.8634 8.26319 18.8511 8.14059 18.8503H8.10316C8.06299 18.7628 8.04786 18.6658 8.05945 18.5702C8.07105 18.4745 8.1089 18.384 8.16883 18.3085C8.32841 18.105 8.45516 17.795 8.75396 17.7891C9.24911 17.793 9.33186 18.3578 9.01664 18.6553C9.02364 18.709 9.01975 18.7635 9.00519 18.8156C8.99064 18.8678 8.96572 18.9164 8.93192 18.9587L8.88136 18.9436Z" fill="#308D8A"/>
<path d="M10.6706 19.4188C10.253 19.407 9.8123 19.3695 9.40514 19.3636C8.97105 19.3216 8.47852 19.4437 8.08187 19.2323C7.46916 18.8034 8.46144 17.5655 9.00848 17.6837C9.35522 17.7605 9.50364 18.2399 9.20221 18.4672C9.72758 18.4803 10.2339 18.504 10.7586 18.5329C11.3319 18.5985 11.2459 19.4628 10.6706 19.4188Z" fill="#308D8A"/>
<path d="M35.3144 22.5215C26.6785 22.1898 18.0367 22.5123 9.39744 22.4105C8.8517 22.3888 8.83134 21.5482 9.39744 21.5285C18.2547 21.5987 27.1133 21.3314 35.9666 21.6368C36.5353 21.6237 36.5813 22.4985 35.9961 22.5235C35.7669 22.53 35.539 22.5281 35.3144 22.5215Z" fill="#308D8A"/>
<path d="M40.7987 28.9455C35.6296 28.692 30.437 28.8292 25.2561 28.7622C23.2767 28.7333 21.3098 28.6151 19.3324 28.6703C17.9238 28.648 16.504 28.9422 15.1038 28.843C14.5883 28.7051 14.6973 27.9341 15.2483 27.9715C18.0958 27.8783 20.9552 27.6327 23.81 27.8513C27.5907 27.9085 31.3734 27.8514 35.1548 27.944C37.0593 27.9597 38.971 27.8743 40.8683 28.0602C41.2623 28.0727 41.8961 27.9407 41.9355 28.4923C41.9197 29.0985 41.198 28.9441 40.7856 28.9455H40.7987Z" fill="#308D8A"/>
<path d="M14.7767 28.7203L14.7386 28.6874L14.7202 28.673C14.7406 28.6887 14.7616 28.7065 14.7859 28.7222C12.5064 26.9064 10.7143 24.6006 8.75789 22.4669C8.29031 22.0985 8.83801 21.4162 9.27867 21.7491C10.9901 23.4651 12.3909 25.4616 14.2389 27.0417C14.6198 27.4226 15.0341 27.7496 15.4255 28.1036C15.7762 28.514 15.1753 29.0933 14.7767 28.7203Z" fill="#308D8A"/>
<path d="M14.898 32.1287C14.7844 32.1002 14.6864 32.0284 14.6251 31.9286C14.5637 31.8288 14.5438 31.709 14.5696 31.5947C14.6353 31.3012 14.9223 31.2289 15.1883 31.2663C15.5402 31.2018 15.8953 31.156 16.2521 31.1291C24.586 30.6496 32.975 31.0371 41.3325 30.9938C41.8782 31.0102 41.9045 31.8562 41.3358 31.8759C32.5291 31.9494 23.6515 31.4529 14.898 32.1287Z" fill="#308D8A"/>
<path d="M9.45908 38.2994C8.83651 38.3887 8.67561 37.4751 9.32774 37.4154C10.3023 37.4751 11.2618 37.3825 12.2331 37.3418C20.2175 37.2196 28.2045 37.3641 36.1903 37.4134C36.6894 37.5224 36.6014 38.3001 36.0911 38.2889C27.186 38.2653 18.294 38.0676 9.39735 38.2961L9.45908 38.2994Z" fill="#308D8A"/>
<path d="M8.96554 38.0014C8.21424 37.6547 8.94124 36.9743 9.2939 36.6427C10.2737 35.5473 11.2969 34.4151 12.3739 33.43C13.0464 32.7457 13.7531 32.1015 14.4689 31.4658C14.6003 31.3417 14.7684 31.2097 14.9536 31.2123C15.4415 31.1932 15.5814 31.9084 15.1191 32.0719C13.1489 33.7905 11.3416 35.6957 9.59664 37.6185C9.44297 37.8445 9.30178 38.1085 8.96554 38.0014Z" fill="#308D8A"/>
<path d="M14.6281 31.6245C23.5603 30.864 32.6141 31.3994 41.6001 31.34C39.9868 33.255 38.5642 35.3733 36.971 37.3141L36.9648 37.3211C36.8086 37.4845 36.6041 37.701 36.4922 37.9277C28.2102 37.8667 19.9247 37.701 11.6447 37.8448C10.7742 37.8862 9.91743 37.9714 9.04688 37.9543C10.8122 35.7602 12.641 33.5896 14.6281 31.6245Z" fill="#308D8A"/>
<path d="M41.7514 28.4106C41.6578 28.4106 41.5683 28.4174 41.4877 28.4151C39.5127 28.2022 37.5254 28.3 35.5443 28.2814C31.6114 28.1775 27.6758 28.2418 23.7429 28.1775C20.7828 27.9287 17.8172 28.2044 14.8619 28.3105C14.5012 27.9645 14.1296 27.638 13.7818 27.2547C12.1047 25.6855 10.7821 23.7562 9.28809 21.9905C18.0946 22.0883 26.9038 21.7461 35.7069 22.1137C35.8216 22.1175 35.9378 22.1197 36.0525 22.1197C36.1133 22.1682 36.1809 22.2056 36.2527 22.2303C38.1901 24.1612 40.1084 26.163 41.7514 28.4106Z" fill="#308D8A"/>
<path d="M41.7589 12.9298C41.8388 12.9298 41.9314 12.9377 42.0268 12.9457C40.2087 14.8598 38.5078 16.8769 36.7585 18.8556C36.7118 18.8892 36.6717 18.9318 36.6407 18.9811C35.5886 18.9876 34.5322 18.9448 33.4766 18.9006C32.2933 18.852 31.1073 18.8049 29.924 18.8281C27.2769 18.7287 24.6262 18.7512 21.977 18.7737C19.8566 18.7918 17.737 18.8099 15.6187 18.7672C14.7069 18.7389 13.7951 18.7672 12.8832 18.7896C11.3626 18.8324 9.84613 18.8766 8.33109 18.6744C8.29391 18.6678 8.26096 18.6642 8.22168 18.6599C8.22589 18.6541 8.22939 18.6461 8.2336 18.6396C10.1183 16.6892 12.0107 14.7243 14.0862 12.995C23.2767 12.1641 32.5578 12.4353 41.7589 12.9298Z" fill="#308D8A"/>
</g>
<mask id="mask1_19728_145081" style="mask-type:alpha" maskUnits="userSpaceOnUse" x="26" y="0" width="24" height="50">
<rect x="26.2217" width="23.7778" height="50" rx="0.888889" fill="#C4C4C4"/>
</mask>
<g mask="url(#mask1_19728_145081)">
<path d="M24.999 50C38.8061 50 49.999 38.8071 49.999 25C49.999 11.1929 38.8061 0 24.999 0C11.1919 0 -0.000976562 11.1929 -0.000976562 25C-0.000976562 38.8071 11.1919 50 24.999 50Z" fill="black"/>
<path fill-rule="evenodd" clip-rule="evenodd" d="M15.4272 31.8913C15.5213 31.7878 15.6359 31.7051 15.7638 31.6485C15.8916 31.5919 16.0299 31.5626 16.1697 31.5625L39.0797 31.5812C39.1773 31.5815 39.2727 31.61 39.3543 31.6634C39.4361 31.7168 39.5004 31.7927 39.5397 31.882C39.5791 31.9713 39.5916 32.0701 39.5758 32.1664C39.5601 32.2626 39.5167 32.3522 39.4509 32.4244L34.5722 37.7962C34.4781 37.8997 34.3633 37.9825 34.2354 38.0391C34.1074 38.0957 33.9691 38.125 33.8291 38.125L10.9197 38.1063C10.8222 38.106 10.7267 38.0775 10.6451 38.0241C10.5634 37.9707 10.499 37.8948 10.4597 37.8055C10.4204 37.7162 10.4078 37.6174 10.4236 37.5211C10.4394 37.4249 10.4827 37.3353 10.5485 37.2631L15.4272 31.8913ZM39.4509 27.4194C39.5167 27.4915 39.5601 27.5811 39.5758 27.6774C39.5916 27.7736 39.5791 27.8725 39.5397 27.9618C39.5004 28.051 39.4361 28.127 39.3543 28.1804C39.2727 28.2337 39.1773 28.2623 39.0797 28.2625L16.1703 28.2812C16.0304 28.2812 15.8921 28.252 15.7641 28.1954C15.6361 28.1388 15.5213 28.056 15.4272 27.9525L10.5485 22.5775C10.4827 22.5054 10.4394 22.4157 10.4236 22.3195C10.4078 22.2233 10.4204 22.1244 10.4597 22.0351C10.499 21.9459 10.5634 21.8699 10.6451 21.8165C10.7267 21.7631 10.8222 21.7346 10.9197 21.7344L33.8297 21.7156C33.9696 21.7158 34.1078 21.745 34.2357 21.8016C34.3636 21.8582 34.4782 21.9409 34.5722 22.0444L39.4509 27.4194ZM15.4272 12.2037C15.5213 12.1003 15.6359 12.0176 15.7638 11.961C15.8916 11.9044 16.0299 11.8751 16.1697 11.875L39.0797 11.8938C39.1773 11.894 39.2727 11.9225 39.3543 11.9759C39.4361 12.0292 39.5004 12.1052 39.5397 12.1945C39.5791 12.2838 39.5916 12.3826 39.5758 12.4789C39.5601 12.5751 39.5167 12.6647 39.4509 12.7369L34.5722 18.1087C34.4781 18.2122 34.3633 18.295 34.2354 18.3516C34.1074 18.4083 33.9691 18.4375 33.8291 18.4375L10.9197 18.4188C10.8222 18.4185 10.7267 18.39 10.6451 18.3366C10.5634 18.2832 10.499 18.2073 10.4597 18.118C10.4204 18.0287 10.4078 17.9299 10.4236 17.8336C10.4394 17.7374 10.4827 17.6477 10.5485 17.5756L15.4272 12.2037Z" fill="url(#paint0_linear_19728_145081)"/>
</g>
<defs>
<linearGradient id="paint0_linear_19728_145081" x1="11.3022" y1="38.6975" x2="38.6972" y2="11.3025" gradientUnits="userSpaceOnUse">
<stop stop-color="#9945FF"/>
<stop offset="0.2" stop-color="#7962E7"/>
<stop offset="1" stop-color="#00D18C"/>
</linearGradient>
</defs>
</svg>
