<svg width="50" height="50" viewBox="0 0 50 50" fill="none" xmlns="http://www.w3.org/2000/svg">
<mask id="mask0_12255_46257" style="mask-type:alpha" maskUnits="userSpaceOnUse" x="0" y="0" width="50" height="50">
<path fill-rule="evenodd" clip-rule="evenodd" d="M25 50C38.8071 50 50 38.8071 50 25C50 11.1929 38.8071 0 25 0C11.1929 0 0 11.1929 0 25C0 38.8071 11.1929 50 25 50ZM25 50C18.3726 50 13 44.6274 13 38C13 31.3726 18.3726 26 25 26C31.6274 26 37 31.3726 37 38C37 44.6274 31.6274 50 25 50Z" fill="#D9D9D9"/>
</mask>
<g mask="url(#mask0_12255_46257)">
<path d="M25 50C38.8071 50 50 38.8071 50 25C50 11.1929 38.8071 0 25 0C11.1929 0 0 11.1929 0 25C0 38.8071 11.1929 50 25 50Z" fill="#C8ECE1"/>
<path d="M9.48673 19.0449C9.17731 18.7568 9.46603 18.3968 9.71941 18.1988C10.0374 17.901 10.3523 17.5775 10.6507 17.2925C11.9792 15.9403 13.3083 14.627 14.8091 13.4789C15.0137 12.8027 15.9591 13.3613 15.5595 13.9052C13.6853 15.3969 11.9859 17.111 10.2914 18.8073L10.3139 18.7848C10.3194 18.7802 10.3245 18.7751 10.3291 18.7696C10.1159 19.0053 9.79494 19.3275 9.48673 19.0449Z" fill="#308D8A"/>
<path d="M35.0347 19.5502C34.998 19.5053 34.9709 19.4534 34.9549 19.3976C34.939 19.3419 34.9346 19.2834 34.942 19.2259C34.9494 19.1684 34.9685 19.113 34.998 19.0631C35.0276 19.0132 35.067 18.9698 35.1139 18.9357C36.7945 17.0962 38.4263 15.2201 40.1939 13.4605C40.351 13.2454 40.7323 13.2217 40.8743 13.4781C41.0156 13.7102 40.8925 13.952 40.7165 14.1225C40.3224 14.5647 39.8772 14.9564 39.4727 15.3889C38.4372 16.4578 37.4626 17.5762 36.4881 18.6981C36.0836 19.0191 35.6256 20.0637 35.0347 19.5502Z" fill="#308D8A"/>
<path d="M15.3435 14.0183C15.2408 14.0135 15.1436 13.9705 15.071 13.8977C14.9984 13.8248 14.9557 13.7275 14.9512 13.6248C14.9502 13.5662 14.9614 13.5081 14.9842 13.4541C15.007 13.4001 15.0408 13.3514 15.0835 13.3113C15.1261 13.2712 15.1767 13.2404 15.232 13.2209C15.2873 13.2015 15.346 13.1938 15.4044 13.1984C15.9331 13.1272 16.4052 13.0827 16.9272 13.0541C24.6488 12.5217 32.4252 12.741 40.1377 13.1412C40.3643 13.1229 40.564 13.33 40.5677 13.5493C40.5543 14.1431 39.8447 13.9604 39.4549 13.9574C31.4409 13.5401 23.3514 13.3123 15.3435 14.0183Z" fill="#308D8A"/>
<path d="M34.5513 19.8917C34.4253 19.8868 34.3077 19.8819 34.209 19.8917C29.751 19.6414 25.2729 19.6724 20.7997 19.7029C17.6165 19.7254 14.4352 19.7461 11.2685 19.6682C11.1503 19.6034 11.0216 19.5599 10.8884 19.5396C10.6898 19.4723 10.4861 19.4209 10.2793 19.3861C10.1995 19.3691 10.1191 19.3539 10.0393 19.3386C10.007 19.3265 9.97839 19.3167 9.94549 19.3064C9.83565 19.2711 9.72097 19.2532 9.60561 19.2534C9.59891 19.2534 9.59161 19.2534 9.58491 19.2503C9.59113 19.2517 9.59744 19.2527 9.6038 19.2534H9.59709C9.50519 19.2375 9.41245 19.2269 9.31934 19.2217C9.32696 19.1642 9.34733 19.109 9.37894 19.0604C9.41055 19.0117 9.45261 18.9707 9.50207 18.9403C9.77251 18.7497 10.1112 18.7429 10.4261 18.7856C11.7411 18.9555 13.058 18.9184 14.3785 18.8824C15.1704 18.8623 15.9622 18.8404 16.754 18.8642C18.5929 18.8995 20.4342 18.8842 22.2755 18.869C24.5755 18.8501 26.8779 18.8319 29.1766 18.9147C30.2042 18.8964 31.2336 18.9354 32.2611 18.9756C33.1833 19.0128 34.1055 19.0487 35.0264 19.0438C35.0835 19.0287 35.143 19.0254 35.2014 19.0343C35.2598 19.0431 35.3156 19.0639 35.3656 19.0954C35.4156 19.1268 35.4585 19.1682 35.4917 19.217C35.525 19.2657 35.5478 19.3208 35.5588 19.3788C35.5856 19.8332 35.1994 19.9002 34.8005 19.9002C34.7189 19.8978 34.6336 19.8947 34.5513 19.8917Z" fill="#308D8A"/>
<path d="M10.7314 19.5156H10.7691C10.7582 19.5198 10.7442 19.5198 10.7314 19.5156Z" fill="#308D8A"/>
<path d="M9.94648 19.3037C9.83675 19.2681 9.72198 19.2504 9.60661 19.2513C9.59991 19.2513 9.59261 19.2514 9.58591 19.2477C9.59261 19.2477 9.59991 19.2477 9.60478 19.2513H9.59809C9.48653 19.2293 9.37314 19.2179 9.25944 19.2172H9.22471C9.18746 19.136 9.17343 19.0461 9.18418 18.9574C9.19493 18.8687 9.23004 18.7847 9.28562 18.7147C9.43363 18.5259 9.55119 18.2384 9.82833 18.2329C10.2876 18.2366 10.3643 18.7604 10.072 19.0363C10.0785 19.0861 10.0748 19.1367 10.0613 19.185C10.0478 19.2334 10.0247 19.2785 9.99338 19.3177L9.94648 19.3037Z" fill="#308D8A"/>
<path d="M11.6066 19.745C11.2192 19.7341 10.8105 19.6993 10.4329 19.6939C10.0303 19.6549 9.57345 19.7682 9.20555 19.572C8.63727 19.1743 9.5576 18.0261 10.065 18.1358C10.3866 18.207 10.5242 18.6517 10.2447 18.8624C10.7319 18.8746 11.2015 18.8965 11.6882 18.9233C12.2199 18.9843 12.1402 19.7858 11.6066 19.745Z" fill="#308D8A"/>
<path d="M34.4635 22.6222C26.4538 22.3146 18.4386 22.6136 10.4258 22.5192C9.91963 22.4991 9.90075 21.7195 10.4258 21.7012C18.6408 21.7664 26.857 21.5185 35.0683 21.8017C35.5958 21.7895 35.6384 22.6008 35.0957 22.624C34.8831 22.6301 34.6718 22.6282 34.4635 22.6222Z" fill="#308D8A"/>
<path d="M39.55 28.5804C34.7557 28.3453 29.9396 28.4726 25.1344 28.4105C23.2986 28.3837 21.4743 28.274 19.6403 28.3252C18.3338 28.3045 17.0169 28.5774 15.7183 28.4854C15.2402 28.3575 15.3413 27.6424 15.8523 27.6771C18.4934 27.5906 21.1454 27.3628 23.7932 27.5657C27.2998 27.6186 30.8082 27.5657 34.3154 27.6515C36.0818 27.6662 37.8548 27.587 39.6145 27.7594C39.98 27.7709 40.5678 27.6485 40.6043 28.1601C40.5897 28.7223 39.9203 28.5792 39.5378 28.5804H39.55Z" fill="#308D8A"/>
<path d="M15.4152 28.3714L15.3799 28.3409L15.3628 28.3275C15.3817 28.3422 15.4012 28.3586 15.4237 28.3732C13.3095 26.689 11.6473 24.5505 9.83282 22.5715C9.39914 22.2298 9.90713 21.5969 10.3158 21.9058C11.9031 23.4973 13.2024 25.349 14.9164 26.8145C15.2696 27.1678 15.654 27.4711 16.017 27.7994C16.3422 28.1801 15.7849 28.7174 15.4152 28.3714Z" fill="#308D8A"/>
<path d="M40.1646 28.5534C40.0945 28.537 40.0298 28.5028 39.9769 28.4541C39.924 28.4053 39.8846 28.3437 39.8625 28.2751C39.8405 28.2066 39.8366 28.1336 39.8512 28.0631C39.8659 27.9926 39.8985 27.9271 39.9459 27.873C38.4603 25.9946 36.7146 24.3262 34.9477 22.7182C34.1412 22.4429 34.9477 21.4074 35.4837 22.0859C37.2335 23.6056 38.8643 25.257 40.3619 27.0258C40.5928 27.295 40.7274 27.521 40.9186 27.7981C41.1483 28.2763 40.6159 28.6795 40.1646 28.5534Z" fill="#308D8A"/>
<path d="M15.5267 31.5328C15.4213 31.5064 15.3305 31.4398 15.2736 31.3472C15.2167 31.2547 15.1982 31.1435 15.2221 31.0375C15.2831 30.7652 15.5492 30.6982 15.7959 30.733C16.1223 30.6731 16.4517 30.6306 16.7827 30.6056C24.5122 30.1609 32.2929 30.5204 40.0444 30.4802C40.5505 30.4954 40.5749 31.28 40.0474 31.2983C31.8793 31.3665 23.6455 30.906 15.5267 31.5328Z" fill="#308D8A"/>
<path d="M10.4827 37.2557C9.90525 37.3385 9.75602 36.4913 10.3609 36.4358C11.2648 36.4913 12.1547 36.4054 13.0555 36.3676C20.461 36.2543 27.8689 36.3883 35.2755 36.434C35.7384 36.5351 35.6568 37.2563 35.1836 37.246C26.9241 37.224 18.6769 37.0407 10.4254 37.2526L10.4827 37.2557Z" fill="#308D8A"/>
<path d="M35.0722 36.9908C34.619 36.6394 35.1331 36.1947 35.4121 35.9322C35.4029 35.942 35.3932 35.9505 35.3841 35.959C36.9166 34.3089 38.2695 32.4931 39.8599 30.8985C39.8989 30.4075 40.6706 30.4301 40.6749 30.9265C40.6802 31.0378 40.6593 31.1488 40.6138 31.2505C40.5683 31.3522 40.4995 31.4417 40.413 31.5119C39.1338 32.7746 38.0593 34.2243 36.8484 35.5515C36.461 36.0181 36.0395 36.4652 35.6362 36.9147C35.5681 36.9946 35.4729 37.0466 35.3688 37.0607C35.2647 37.0747 35.1591 37.0498 35.0722 36.9908V36.9908Z" fill="#308D8A"/>
<path d="M10.0248 36.9793C9.32796 36.6577 10.0022 36.0267 10.3293 35.7191C11.2381 34.7031 12.1871 33.653 13.186 32.7394C13.8097 32.1047 14.4651 31.5072 15.1291 30.9176C15.2509 30.8025 15.4068 30.68 15.5786 30.6825C16.0312 30.6648 16.1609 31.3281 15.7321 31.4798C13.9048 33.0738 12.2285 34.8408 10.6101 36.6242C10.4676 36.8337 10.3366 37.0786 10.0248 36.9793Z" fill="#308D8A"/>
<path d="M15.6879 31.5202C23.5624 30.9276 31.5441 31.3448 39.4661 31.2985C38.0438 32.7908 36.7897 34.4415 35.3851 35.9539L35.3796 35.9594C35.2419 36.0867 35.0616 36.2554 34.963 36.4321C27.6617 36.3846 20.3573 36.2554 13.0578 36.3675C12.2903 36.3998 11.535 36.4662 10.7676 36.4528C12.3238 34.743 13.9361 33.0515 15.6879 31.5202Z" fill="#308D8A"/>
<path d="M39.8508 27.7564C39.7674 27.7564 39.6876 27.7619 39.6157 27.76C37.8548 27.5864 36.0829 27.6662 34.3165 27.651C30.8099 27.5663 27.3009 27.6187 23.7943 27.5663C21.155 27.3635 18.5109 27.5883 15.8759 27.6747C15.5543 27.3927 15.223 27.1266 14.9129 26.8141C13.4176 25.535 12.2384 23.9623 10.9062 22.5229C18.7582 22.6027 26.6126 22.3238 34.4615 22.6234C34.5638 22.6265 34.6674 22.6283 34.7697 22.6283C34.8239 22.6678 34.8842 22.6983 34.9481 22.7185C36.6756 24.2924 38.3859 25.9242 39.8508 27.7564Z" fill="#308D8A"/>
<path d="M39.4576 13.9576C39.5271 13.9576 39.6075 13.9643 39.6903 13.971C38.1115 15.579 36.6344 17.2735 35.1153 18.9358C35.0747 18.9639 35.04 18.9997 35.013 19.0411C34.0993 19.0466 33.182 19.0107 32.2653 18.9735C31.2378 18.9327 30.2078 18.8931 29.1802 18.9126C26.8815 18.8292 24.5797 18.848 22.2791 18.8669C20.4378 18.8822 18.5971 18.8974 16.7576 18.8614C15.9657 18.8377 15.1739 18.8614 14.3821 18.8803C13.0615 18.9163 11.7447 18.9534 10.429 18.7835C10.3967 18.778 10.3681 18.775 10.334 18.7713C10.3376 18.7664 10.3407 18.7597 10.3443 18.7542C11.981 17.1158 13.6243 15.4651 15.4267 14.0124C23.4078 13.3143 31.4674 13.5421 39.4576 13.9576Z" fill="#308D8A"/>
</g>
<path d="M30.6095 34.7667L19.7768 38.6258C19.6429 38.6742 19.4985 38.6865 19.3583 38.6613C19.2181 38.6362 19.087 38.5745 18.9782 38.4825C18.8694 38.3906 18.7868 38.2716 18.7387 38.1375C18.6905 38.0034 18.6786 37.8591 18.704 37.7189C19.0307 35.9 19.3652 34.0772 19.7074 32.2505C19.7421 32.0608 19.8434 31.8898 19.9929 31.7681L24.6895 27.9553C24.8337 27.8371 25.0144 27.7725 25.2009 27.7725C25.3873 27.7725 25.568 27.8371 25.7122 27.9553L30.4319 31.7874C30.566 31.8963 30.6619 32.0449 30.7059 32.2119C30.8449 32.7406 30.9799 33.2693 31.1189 33.8019C31.1702 33.9973 31.1464 34.2048 31.052 34.3835C30.9577 34.5621 30.7998 34.6989 30.6095 34.7667V34.7667ZM18.0904 41.3504C17.909 42.2766 17.7045 43.2028 17.5424 44.1289C17.5087 44.3012 17.5319 44.4798 17.6085 44.6378C17.685 44.7958 17.8108 44.9246 17.9669 45.005C20.2031 46.16 22.6821 46.7659 25.1989 46.7725C27.6922 46.7679 30.149 46.1742 32.3692 45.0397C32.5444 44.95 32.686 44.8061 32.7729 44.6295C32.8598 44.4529 32.8874 44.253 32.8516 44.0595C32.5776 42.6046 31.9293 39.0889 31.5434 37.113C31.5217 36.9979 31.4754 36.8888 31.4076 36.7933C31.3397 36.6978 31.2519 36.6181 31.1503 36.5598C31.0487 36.5015 30.9357 36.4659 30.819 36.4554C30.7023 36.445 30.5847 36.46 30.4744 36.4994L18.6114 40.7445C18.48 40.7925 18.3631 40.8734 18.2719 40.9795C18.1807 41.0856 18.1182 41.2133 18.0904 41.3504V41.3504Z" fill="url(#paint0_linear_12255_46257)"/>
<defs>
<linearGradient id="paint0_linear_12255_46257" x1="29.8222" y1="48.347" x2="19.8849" y2="30.8998" gradientUnits="userSpaceOnUse">
<stop offset="0.11" stop-color="#C65CFF"/>
<stop offset="0.18" stop-color="#BA6BFF"/>
<stop offset="0.33" stop-color="#9991FF"/>
<stop offset="0.53" stop-color="#66CCFF"/>
<stop offset="0.81" stop-color="#42F0DB"/>
<stop offset="0.97" stop-color="#33FFCC"/>
</linearGradient>
</defs>
</svg>
